<svg width="12" height="16" viewBox="0 0 12 16" fill="none" xmlns="http://www.w3.org/2000/svg">
<path fill-rule="evenodd" clip-rule="evenodd" d="M11.9999 2.76401C11.9998 2.76148 12 2.75917 12 2.75675C11.9999 2.75032 11.9993 2.74412 11.9992 2.73768C11.9987 2.70801 11.9977 2.67841 11.9961 2.64892C11.9947 2.61976 11.9927 2.59081 11.9904 2.56196C11.9896 2.55208 11.9888 2.54226 11.9878 2.53248C11.9635 2.2636 11.9007 2.00618 11.8048 1.76528C11.8029 1.76044 11.8008 1.75572 11.7989 1.75097C11.7854 1.71748 11.7714 1.68433 11.7567 1.65159C11.7432 1.62167 11.7295 1.5921 11.7152 1.56283C11.7128 1.55799 11.7103 1.55315 11.7079 1.5483C11.2491 0.62729 10.2986 -0.00516042 9.2043 0.000310025C9.20046 0.000310025 9.19656 0 9.1928 0H2.77203C1.23439 0 -0.0148614 1.26402 0.000133594 2.81181C0.0127091 4.11068 0.924138 5.18743 2.13047 5.48589C1.16238 5.95042 0.493535 6.9427 0.493535 8.09219V11.8374C0.493535 11.9406 0.63062 11.9744 0.678433 11.8831C1.85063 9.64606 5.947 7.08221 10.1869 5.41293L10.1855 5.4123C11.2038 5.03042 11.945 4.06405 11.997 2.92488C11.9995 2.87085 12.0004 2.8173 11.9999 2.76401ZM9.20512 4.03826H9.00013C8.4559 3.94283 8.02776 3.48954 7.96871 2.93186C7.88369 2.12784 8.55529 1.45316 9.35587 1.53857C9.939 1.60081 10.4076 2.07171 10.4694 2.6574C10.474 2.70141 10.476 2.74483 10.4762 2.788C10.4761 2.79673 10.4764 2.80548 10.4762 2.81432L10.4761 2.81738C10.4587 3.50059 9.88585 4.03826 9.20512 4.03826ZM1.52477 2.81455C1.50814 2.10977 2.07406 1.53125 2.77196 1.53125H6.73845C6.56422 1.87426 6.45849 2.25749 6.4399 2.66273C6.41728 3.15757 6.52377 3.62607 6.72808 4.03731H2.79541C2.1142 4.03731 1.54093 3.49857 1.52477 2.81455Z" fill="#283C45"/>
<path d="M10.7148 6.53435C3.49254 9.62354 -0.92951 15.8648 5.59323 15.9973C5.75025 16.0005 5.91149 16.0013 6.08131 15.9973H8.43659C9.98332 15.9973 11.2372 14.7378 11.2372 13.1842V8.01853C11.2372 7.49105 11.0921 6.99788 10.8405 6.57613C10.8148 6.53277 10.7611 6.51454 10.7148 6.53435Z" fill="#283C45"/>
</svg>
